<svg id="Layer_1" data-name="Layer 1" xmlns="http://www.w3.org/2000/svg" viewBox="0 0 2224 400"><defs><style>.cls-1{fill:#f159b2;}</style></defs><g id="outlines"><path d="M675.69,211c-2.49-9.46-10.45-14.28-19.09-14.28-13.94,0-23.4,10.79-23.4,32.21s10.29,32.37,24.23,32.37c10,0,19.76-6.64,20.75-17.1H655.77V222.27h55.45v10.12c0,37.35-20.92,56.61-53.29,56.61-36.19,0-59.09-23.74-59.09-60.09s22.07-60.09,58.43-60.09c28.05,0,47.81,17.26,53,42.16Z"/><path d="M729.14,170.81h81.34v26.56h-47v16.76h41.16v26.56H763.51v19.92H812V287H729.14Z"/><path d="M865.26,170.81V287H831.07V170.81Z"/><path d="M944.11,205.67c-1-6.14-5.48-11-12.45-11S921.2,198,921.2,202c0,5.14,2.33,8.63,17.93,13.27,24.73,7.48,38.35,16.77,38.35,37.52,0,21.75-17.43,36.19-46.82,36.19-19.09,0-35.35-10.13-46.48-25.4l14.45-13.78c10.45,9.3,19.58,13.45,31.37,13.45,8.47,0,13-3.32,13-8.3,0-5.81-3.32-8.63-22.08-14.28-25.4-7.63-34.2-20.25-34.2-37.68,0-20.08,15.11-34.19,42.83-34.19,29.22,0,43.83,15.43,46.81,36.68C965.52,205.5,954.73,205.67,944.11,205.67Z"/><path d="M994.9,170.81h81.35v26.56h-47v16.76h41.17v26.56h-41.17v19.92h48.47V287H994.9Z"/><path d="M1096.16,170.81h34.2v88.64H1178V287h-81.84Z"/></g><g id="outlines-2" data-name="outlines"><path d="M1226.67,263.08A47.32,47.32,0,0,0,1262.86,280c23.84,0,30.62-13.22,30.62-23.14,0-16.35-15.66-20.88-31.84-25.23-18.27-5-37.76-10.26-37.76-31.67,0-19,17.06-31,38.11-31,17.23,0,30.27,6.09,39.32,16.36l-6.61,7.31c-8.35-10.1-20.18-14.62-33.23-14.62-15.49,0-27.14,8.87-27.14,21.4,0,13.75,14.44,17.75,30.27,22.1,18.62,5.22,39.32,11.14,39.32,34.8,0,14.79-9.92,32.71-41.23,32.71-19.14,0-33.59-7.66-42.46-18.44Z"/><path d="M1379.79,168.94c33.93,0,56.37,26.1,56.37,60s-22.44,60-56.37,60c-34.11,0-56.38-26.1-56.38-60S1345.68,168.94,1379.79,168.94Zm0,9.05c-28.19,0-45.94,21.58-45.94,51,0,29.23,17.75,51,45.94,51,27.84,0,45.93-21.75,45.93-51C1425.72,199.57,1407.63,178,1379.79,178Z"/><path d="M1460.7,170.86h73.6v9h-63.69v43h62.47v9.05h-62.47v55h-9.91Z"/><path d="M1584.58,179.91h-37.93v-9h85.95v9h-37.93v107h-10.09Z"/><path d="M1714,187.21l-27.67,99.7h-11.13l-33.24-116h11.14l28,102.13,28.54-102.13h8.87L1747.1,273l28-102.13h11.14l-33.06,116.05h-11.14Z"/><path d="M1868.2,258.38h-61.77l-11.66,28.53h-11.13l47.5-116h12.35L1891,286.91h-11.13Zm-58.64-9h55.51l-27.84-68.73Z"/><path d="M1943.54,238.89H1918v48H1908v-116h43.33c20,0,35.32,12.7,35.32,33.93,0,21.05-15,32.71-32.19,33.4l33.58,48.72h-12Zm7-59H1918v49.93h32.54c15.31,0,25.75-10.44,25.75-25.05S1965.81,179.91,1950.5,179.91Z"/><path d="M2011.4,170.86H2085v9h-63.68v43h62.46v9.05h-62.46v45.93H2085v9.05h-73.6Z"/></g><path class="cls-1" d="M297.87,177.67V288H165.71c-20.06,0-38.49-17.24-38.49-38.5v-100c0-20.5,17.18-38.5,38.49-38.5H297.87v42.46H186.35c-6,0-11.11,3.46-11.11,9.53v73c0,6.07,5.09,9.53,11.11,9.53h65.08v-25.4H223.65V177.67Z"/><path class="cls-1" d="M474.47,215.77V249.5c0,20.5-16.78,38.5-38.1,38.5H307.79V245.54H417.32c5.27,0,8.73-4.21,8.73-9.53v-6.35c0-5.57-3.46-9.52-8.73-9.52h-71c-20.31,0-38.49-18.58-38.49-40.09V149.5c0-20.5,17.18-38.5,38.49-38.5H474.47v42.46H365.73c-5.26,0-8.73,4-8.73,9.53v5.55c0,5.07,3.47,9.13,8.73,9.13h70.64A38.27,38.27,0,0,1,474.47,215.77Z"/><path class="cls-1" d="M484.39,111H534V249.5c0,21.26-18.44,38.5-38.5,38.5H484.39Z"/></svg>